# xmcd
#
# Track frame offsets:
#	150
#	12822
#	28516
#	40695
#	54818
#	66471
#	79314
#	91593
#	102861
#	114607
#	125702
#	135685
#	145818
#	156959
#	168174
#	178844
#	190812
#	199390
#
# Disc length: 2823 seconds
#
# Revision: 1
# Processed by: cddbd v1.5.2PL0 Copyright (c) Steve Scherf et al.
# Submitted via: audiograbber 1.83.01
#
DISCID=f30b0512
DTITLE=Guy Mitchell - The Essential Collection
DYEAR=1900
DGENRE=
TTITLE0=My Heart Cries For You
TTITLE1=A Beggar In Love
TTITLE2=Feet Up (Pat Him On The Po-Po)
TTITLE3=She Wears Red Feathers
TTITLE4=Pretty Little Black-Eyed Susie
TTITLE5=Look At That Girl
TTITLE6=Chicka Boom
TTITLE7=Cloud Lucky Seven
TTITLE8=Belonging
TTITLE9=Singing The Blues
TTITLE10=Knee Deep In The Blues
TTITLE11=Rock-A-Billy
TTITLE12=In The Middle Of A Dark, Dark Night
TTITLE13=Call Rosie On The Phone
TTITLE14=Wonderin' And Worryin'
TTITLE15=Heartaches By The Number
TTITLE16=Silver Moon Upon The Golden Sands
TTITLE17=Your Goodnight Kiss (Ain't What It Used To Be)
EXTD=
EXTT0=
EXTT1=
EXTT2=
EXTT3=
EXTT4=
EXTT5=
EXTT6=
EXTT7=
EXTT8=
EXTT9=
EXTT10=
EXTT11=
EXTT12=
EXTT13=
EXTT14=
EXTT15=
EXTT16=
EXTT17=
PLAYORDER=
